<svg width="206" height="47" viewBox="0 0 206 47" fill="none" xmlns="http://www.w3.org/2000/svg">
<path d="M19.1188 11.9092L10.842 16.7155C11.8258 18.3809 13.4275 19.5852 15.2947 20.0637C17.1617 20.5415 19.1411 20.2542 20.7978 19.2642L21.142 19.0646C22.3563 18.359 23.8904 18.5622 24.8818 19.56L29.0334 23.7349C33.502 28.2286 40.7469 28.2286 45.2155 23.7349L54.2105 14.6885C52.8311 13.3357 50.9743 12.5896 49.0474 12.6133C47.1203 12.6371 45.2825 13.4303 43.9371 14.8174L40.5324 18.2407C39.6281 19.15 38.4018 19.6607 37.1234 19.6607C35.8449 19.6607 34.6188 19.15 33.7145 18.2407L28.6766 13.1746C26.1421 10.6256 22.2226 10.1072 19.1188 11.9092Z" fill="white"/>
<path d="M44.272 5.42097C44.272 8.41501 41.6426 10.8421 38.3992 10.8421C35.1558 10.8421 32.5264 8.41501 32.5264 5.42097C32.5264 2.4271 35.1549 0 38.3985 0C39.9559 0 41.4498 0.570949 42.5518 1.588C43.6536 2.60442 44.272 3.98333 44.272 5.42177V5.42097Z" fill="white"/>
<path d="M8.45016 45.0118L0 40.2054C1.00431 38.5399 2.64005 37.3355 4.54554 36.8569C6.45153 36.379 8.47217 36.6662 10.1628 37.6563L10.5135 37.856C11.7531 38.5616 13.3191 38.3584 14.3312 37.3614L18.5694 33.1862C23.1314 28.6922 30.5274 28.6922 35.0892 33.1862L44.2719 42.233C42.8638 43.586 40.9683 44.3322 39.001 44.3083C37.0345 44.2845 35.1582 43.4914 33.7849 42.104L30.309 38.68C29.3858 37.7705 28.1341 37.2598 26.8291 37.2598C25.5239 37.2598 24.2722 37.7705 23.349 38.68L18.206 43.7465C15.6193 46.2948 11.6172 46.8139 8.44864 45.0118H8.45016Z" fill="white"/>
<path d="M84.9117 30.6075L94.2502 8.42187H101.023L90.8008 31.5198C88.95 35.791 87.1832 37.74 83.86 37.74C81.0417 37.74 79.1066 35.7496 79.2328 31.7686L79.7376 15.43L73.0913 31.5198C71.3666 35.874 69.5157 37.74 66.1925 37.74C63.3741 37.74 61.3971 35.7081 61.4391 31.7271V8.42187H68.0434L67.5386 30.0684L74.6477 13.3566C76.1621 9.79033 78.0971 8.13159 80.9996 8.13159C83.3553 8.13159 85.6268 9.66592 85.4585 13.3151L84.9117 30.6075ZM112.365 37.9474C104.962 37.9474 99.3248 32.598 99.3248 25.258C99.3248 17.9596 104.962 12.5687 112.365 12.5687C119.769 12.5687 125.364 17.9596 125.364 25.258C125.364 32.6394 119.769 37.9474 112.365 37.9474ZM112.365 31.9759C116.109 31.9759 118.928 29.1975 118.928 25.258C118.928 21.2356 116.067 18.4572 112.365 18.4572C108.579 18.4572 105.761 21.2771 105.761 25.258C105.761 29.1975 108.579 31.9759 112.365 31.9759ZM141.887 24.5531L151.52 37.4498H143.317L135.367 26.1289V37.4498H128.931V8.42187H135.367V23.309L143.023 13.0663H150.931L141.887 24.5531ZM170.362 15.3886V13.0663H176.546V37.4498H170.362V35.1275C168.679 36.8692 166.324 37.9474 163.169 37.9474C156.102 37.9474 150.633 32.598 150.633 25.258C150.633 17.9596 156.102 12.5687 163.169 12.5687C166.029 12.5687 168.511 13.5225 170.362 15.3886ZM163.842 31.893C167.67 31.893 170.53 29.0731 170.53 25.1336C170.53 21.2356 167.67 18.4158 163.842 18.4158C160.098 18.4158 157.195 21.2356 157.195 25.1336C157.195 29.0731 160.098 31.893 163.842 31.893ZM199.816 15.3886V13.0663H206V37.4498H199.816V35.1275C198.134 36.8692 195.778 37.9474 192.623 37.9474C185.556 37.9474 180.088 32.598 180.088 25.258C180.088 17.9596 185.556 12.5687 192.623 12.5687C195.484 12.5687 197.965 13.5225 199.816 15.3886ZM193.296 31.893C197.124 31.893 199.985 29.0731 199.985 25.1336C199.985 21.2356 197.124 18.4158 193.296 18.4158C189.552 18.4158 186.65 21.2356 186.65 25.1336C186.65 29.0731 189.552 31.893 193.296 31.893Z" fill="white"/>
</svg>
